<?xml version="1.0" encoding="utf-8"?>
<!-- Generator: Adobe Illustrator 25.0.0, SVG Export Plug-In . SVG Version: 6.00 Build 0)  -->
<svg version="1.1" id="Layer_1" xmlns="http://www.w3.org/2000/svg" xmlns:xlink="http://www.w3.org/1999/xlink" x="0px" y="0px"
	 viewBox="0 0 512 512" style="enable-background:new 0 0 512 512;" xml:space="preserve">
<path fill="currentColor" d="M20.8,363.1L60.6,432h0c8.1,16.1,24.6,26.2,42.6,26.2h264.6L313,363.1C313,363.1,20.8,363.1,20.8,363.1z M492.8,363.6
	c0-9.5-2.8-18.4-7.6-25.8l-155-269.5c-8.3-15.6-24.5-25.4-42.1-25.3H206l239.5,415l37.8-65.4C490.7,379.9,492.8,374.3,492.8,363.6z
	 M273.9,295.5l-107-185.4L59.8,295.5C59.8,295.5,273.9,295.5,273.9,295.5z"/>
</svg>
